<?xml version="1.0" encoding="utf-8"?>
<!-- Generator: Fusion 360, Shaper Origin Export Add-In, Version 1.9.0  -->
<svg xmlns="http://www.w3.org/2000/svg" xmlns:xlink="http://www.w3.org/1999/xlink" xmlns:shaper="http://www.shapertools.com/namespaces/shaper" shaper:fusionaddin="version:1.9.0" width="20.5000001cm" height="5.0000007cm" version="1.1" x="0cm" y="0cm" viewBox="0 0 20.5000001 5.0000007" enable-background="new 0 0 20.5000001 5.0000007" xml:space="preserve"><path d="M-14.0400392,-46.4700114 L-13.2941528,-47.2158977 A1.75,1.75 303.1065972 0,1 -14.2500001,-43.9999999 L-16.0000001,-43.9999999 -16,-45.3 -15.2100505,-45.3 -15.0000001,-45.5100504 -15.0000001,-45 -14.2500001,-45 A0.75,0.75 90 0,0 -14.0400392,-46.4700114z" transform="matrix(1,0,0,-1,25.0000001,-43.9999997)" fill="rgb(0,0,0)" stroke-linecap="round" stroke-linejoin="round" /><path d="M-23.5,-47 A3,3 270 0,1 -20.5,-44 A3,3 90 0,1 -23.5,-47z" transform="matrix(1,0,0,-1,25.0000001,-43.9999997)" fill="rgb(0,0,0)" stroke-linecap="round" stroke-linejoin="round" /><path d="M-8,-47.1541631 L-6.1541627,-49.0000003 -4.7399492,-49.0000003 -4.9949747,-48.7449747 -6.5857864,-47.1541631 A1,1 45 0,1 -8,-47.1541631z" transform="matrix(1,0,0,-1,25.0000001,-43.9999997)" fill="rgb(0,0,0)" stroke-linecap="round" stroke-linejoin="round" /><path d="M-20,-46.4899495 L-20.0000001,-49.0000002 -19.0000001,-49.0000002 -19.0000001,-47.4899494 -20,-46.4899495z" transform="matrix(1,0,0,-1,25.0000001,-43.9999997)" fill="rgb(0,0,0)" stroke-linecap="round" stroke-linejoin="round" /><path d="M-20.5,-49 A3,3 0 0,1 -21.6684367,-46.624 A3.2,3.2 304.9152062 0,0 -23.2536699,-47.1905049 A3,3 203.3804654 0,1 -20.5,-49z" transform="matrix(1,0,0,-1,25.0000001,-43.9999997)" fill="rgb(0,0,0)" stroke-linecap="round" stroke-linejoin="round" /><path d="M-19.2928932,-45.5 L-20,-45.5 -20,-46.2071068 -17.7000001,-48.5071067 -17.7000001,-47.0928932 -19.2928932,-45.5z" transform="matrix(1,0,0,-1,25.0000001,-43.9999997)" fill="rgb(0,0,0)" stroke-linecap="round" stroke-linejoin="round" /><path d="M-10.2500001,-48 A0.75,0.75 270 0,0 -11.0000001,-47.25 L-11.0000001,-43.9999999 -12.0000001,-45.0000001 -12.0000001,-47.25 A1.75,1.75 180 0,1 -10.2500001,-49 L-8.5,-49 -8.5,-47.25 -8.5,-44.9993542 -9.5,-43.9999999 -9.5,-47.25 -9.5,-48 -10.2500001,-48z" transform="matrix(1,0,0,-1,25.0000001,-43.9999997)" fill="rgb(0,0,0)" stroke-linecap="round" stroke-linejoin="round" /><path d="M-4.5,-48.9571068 L-4.5,-47.5428932 -7.6464466,-44.3964466 -8,-44.0428932 -8,-45.4571068 -4.8535534,-48.6035534 -4.5,-48.9571068z" transform="matrix(1,0,0,-1,25.0000001,-43.9999997)" fill="rgb(0,0,0)" stroke-linecap="round" stroke-linejoin="round" /><path d="M-16,-46.2071068 L-13.2071068,-49 -12.5,-49 -12.5,-48.2928932 -15.2928932,-45.5 -16,-45.5 -16,-46.2071068z" transform="matrix(1,0,0,-1,25.0000001,-43.9999997)" fill="rgb(0,0,0)" stroke-linecap="round" stroke-linejoin="round" /><path d="M-16,-46.4899495 L-16.0000001,-49.0000002 -15.0000001,-49.0000002 -15.0000001,-47.4899494 -16,-46.4899495z" transform="matrix(1,0,0,-1,25.0000001,-43.9999997)" fill="rgb(0,0,0)" stroke-linecap="round" stroke-linejoin="round" /><path d="M-7.7600508,-43.9999997 L-7.5050253,-44.2550253 -5.9142136,-45.8458369 A1,1 225 0,1 -4.5,-45.8458369 L-6.3458373,-43.9999997 -7.7600508,-43.9999997z" transform="matrix(1,0,0,-1,25.0000001,-43.9999997)" fill="rgb(0,0,0)" stroke-linecap="round" stroke-linejoin="round" /><path d="M-25,-46.4899495 L-25.0000001,-49.0000002 -24.0000001,-49.0000002 -24.0000001,-47.4899494 -25,-46.4899495z" transform="matrix(1,0,0,-1,25.0000001,-43.9999997)" fill="rgb(0,0,0)" stroke-linecap="round" stroke-linejoin="round" /><path d="M-18.2500001,-45 A0.75,0.75 90 0,0 -17.5000001,-45.75 L-17.5000001,-49.0000002 -16.5,-49 -16.5,-45.7499999 A1.75,1.75 0.0000009 0,1 -18.2500001,-43.9999999 L-20.0000001,-43.9999999 -20,-45.3 -19.2100505,-45.3 -19.0000001,-45.5100504 -19.0000001,-45 -18.2500001,-45z" transform="matrix(1,0,0,-1,25.0000001,-43.9999997)" fill="rgb(0,0,0)" stroke-linecap="round" stroke-linejoin="round" /><path d="M-24,-44 L-25,-44 -25,-46.2071068 -24,-47.2071068 -24,-44z" transform="matrix(1,0,0,-1,25.0000001,-43.9999997)" fill="rgb(0,0,0)" stroke-linecap="round" stroke-linejoin="round" /></svg>