<?xml version="1.0" encoding="utf-8"?>
<!-- Generator: Fusion 360, Shaper Origin Export Add-In, Version 1.9.0  -->
<svg xmlns="http://www.w3.org/2000/svg" xmlns:xlink="http://www.w3.org/1999/xlink" xmlns:shaper="http://www.shapertools.com/namespaces/shaper" shaper:fusionaddin="version:1.9.0" width="4.5000001cm" height="5.0000002cm" version="1.1" x="0cm" y="0cm" viewBox="0 0 4.5000001 5.0000002" enable-background="new 0 0 4.5000001 5.0000002" xml:space="preserve"><path d="M-20.5,-49 A3,3 0 0,1 -21.6684367,-46.624 A3.2,3.2 304.9152062 0,0 -23.2536699,-47.1905049 A3,3 203.3804654 0,1 -20.5,-49z" transform="matrix(1,0,0,-1,25.0000001,-44)" fill="rgb(0,0,0)" stroke-linecap="round" stroke-linejoin="round" /><path d="M-25,-46.4899495 L-25.0000001,-49.0000002 -24.0000001,-49.0000002 -24.0000001,-47.4899494 -25,-46.4899495z" transform="matrix(1,0,0,-1,25.0000001,-44)" fill="rgb(0,0,0)" stroke-linecap="round" stroke-linejoin="round" /><path d="M-23.5,-47 A3,3 270 0,1 -20.5,-44 A3,3 90 0,1 -23.5,-47z" transform="matrix(1,0,0,-1,25.0000001,-44)" fill="rgb(0,0,0)" stroke-linecap="round" stroke-linejoin="round" /><path d="M-24,-44 L-25,-44 -25,-46.2071068 -24,-47.2071068 -24,-44z" transform="matrix(1,0,0,-1,25.0000001,-44)" fill="rgb(0,0,0)" stroke-linecap="round" stroke-linejoin="round" /></svg>